<svg width="25" height="25" viewBox="0 0 25 25" fill="none" xmlns="http://www.w3.org/2000/svg">
<circle cx="12.5" cy="12.5" r="12.5" fill="#84B8AD"/>
<path d="M16.1885 11.6885C16.4221 11.6885 16.6127 11.7684 16.7602 11.9283C16.9201 12.0758 17 12.2664 17 12.5C17 12.7336 16.9201 12.9303 16.7602 13.0902C16.6127 13.2377 16.4221 13.3115 16.1885 13.3115H13.3115V16.1701C13.3115 16.4037 13.2316 16.6004 13.0717 16.7602C12.9242 16.9201 12.7336 17 12.5 17C12.2664 17 12.0697 16.9201 11.9098 16.7602C11.7623 16.6004 11.6885 16.4037 11.6885 16.1701V13.3115H8.81148C8.57787 13.3115 8.38115 13.2377 8.22131 13.0902C8.07377 12.9303 8 12.7336 8 12.5C8 12.2664 8.07377 12.0758 8.22131 11.9283C8.38115 11.7684 8.57787 11.6885 8.81148 11.6885H11.6885V8.81148C11.6885 8.57787 11.7623 8.3873 11.9098 8.23975C12.0697 8.07992 12.2664 8 12.5 8C12.7336 8 12.9242 8.07992 13.0717 8.23975C13.2316 8.3873 13.3115 8.57787 13.3115 8.81148V11.6885H16.1885Z" fill="white"/>
</svg>
