<svg width="15" height="20" viewBox="0 0 15 20" fill="none" xmlns="http://www.w3.org/2000/svg">
<path d="M15 12.4815C15 16.6272 11.7585 20 7.77477 20H5.21717C4.79334 20 4.44988 19.6426 4.44988 19.2016V18.9354C4.44988 18.4944 4.7933 18.137 5.21717 18.137H7.77477C10.7715 18.137 13.2097 15.5998 13.2097 12.4815C13.2097 9.36314 10.7715 6.82594 7.77477 6.82594H3.05614L6.30586 10.2076C6.6549 10.5706 6.6549 11.1617 6.30586 11.5248C5.96718 11.877 5.37774 11.8764 5.03982 11.5248L0.262242 6.55314C0.0931751 6.37721 0 6.14328 0 5.8944C0 5.6457 0.0931751 5.41164 0.262242 5.2358L5.04007 0.263928C5.378 -0.0879761 5.96794 -0.0879761 6.3059 0.263928C6.65494 0.626914 6.65494 1.21807 6.3059 1.58101L3.05618 4.96291H7.77477C11.7585 4.96291 15 8.33583 15 12.4815Z" fill="#DEDEDE"/>
</svg>
